<svg xmlns="http://www.w3.org/2000/svg" viewBox="0 0 128 128" fill="none">
  <!-- Background circle -->
  <circle cx="64" cy="64" r="60" fill="#2f5047"/>
  
  <!-- Sparkle/clean effect - top left -->
  <path d="M35 30 L40 35 L35 40 L30 35 Z" fill="white" opacity="0.9"/>
  <path d="M37.5 27.5 L37.5 42.5 M30 35 L45 35" stroke="white" stroke-width="2" opacity="0.9"/>
  
  <!-- Sparkle/clean effect - top right -->
  <path d="M88 25 L93 30 L88 35 L83 30 Z" fill="white" opacity="0.8"/>
  <path d="M90.5 22.5 L90.5 37.5 M83 30 L98 30" stroke="white" stroke-width="2" opacity="0.8"/>
  
  <!-- Simplified house/building shape -->
  <path d="M40 85 L40 55 L64 40 L88 55 L88 85 Z" fill="white" stroke="white" stroke-width="2" stroke-linejoin="round"/>
  
  <!-- Roof -->
  <path d="M35 58 L64 35 L93 58" stroke="white" stroke-width="3" stroke-linecap="round" stroke-linejoin="round" fill="none"/>
  
  <!-- Door -->
  <rect x="56" y="65" width="16" height="20" fill="#ff8057"/>
  
  <!-- Window -->
  <rect x="45" y="62" width="8" height="8" fill="#2f5047"/>
  <rect x="75" y="62" width="8" height="8" fill="#2f5047"/>
  
  <!-- Sparkle/clean effect - bottom -->
  <path d="M70 90 L73 93 L70 96 L67 93 Z" fill="white" opacity="0.7"/>
  <path d="M71.5 88.5 L71.5 97.5 M67 93 L76 93" stroke="white" stroke-width="1.5" opacity="0.7"/>
</svg>